<svg id="visual" viewBox="0 0 675 900" width="675" height="900" xmlns="http://www.w3.org/2000/svg" xmlns:xlink="http://www.w3.org/1999/xlink" version="1.1"><rect x="0" y="0" width="675" height="900" fill="#FFFFFF"></rect><defs><linearGradient id="grad1_0" x1="0%" y1="100%" x2="100%" y2="0%"><stop offset="30%" stop-color="#7564e6" stop-opacity="1"></stop><stop offset="70%" stop-color="#7564e6" stop-opacity="1"></stop></linearGradient></defs><defs><linearGradient id="grad1_1" x1="0%" y1="100%" x2="100%" y2="0%"><stop offset="30%" stop-color="#7564e6" stop-opacity="1"></stop><stop offset="70%" stop-color="#c0aff4" stop-opacity="1"></stop></linearGradient></defs><defs><linearGradient id="grad1_2" x1="0%" y1="100%" x2="100%" y2="0%"><stop offset="30%" stop-color="#ffffff" stop-opacity="1"></stop><stop offset="70%" stop-color="#c0aff4" stop-opacity="1"></stop></linearGradient></defs><defs><linearGradient id="grad2_0" x1="0%" y1="100%" x2="100%" y2="0%"><stop offset="30%" stop-color="#7564e6" stop-opacity="1"></stop><stop offset="70%" stop-color="#7564e6" stop-opacity="1"></stop></linearGradient></defs><defs><linearGradient id="grad2_1" x1="0%" y1="100%" x2="100%" y2="0%"><stop offset="30%" stop-color="#c0aff4" stop-opacity="1"></stop><stop offset="70%" stop-color="#7564e6" stop-opacity="1"></stop></linearGradient></defs><defs><linearGradient id="grad2_2" x1="0%" y1="100%" x2="100%" y2="0%"><stop offset="30%" stop-color="#c0aff4" stop-opacity="1"></stop><stop offset="70%" stop-color="#ffffff" stop-opacity="1"></stop></linearGradient></defs><g transform="translate(675, 900)"><path d="M-309.4 0C-307 -42 -304.7 -84.1 -285.8 -118.4C-267 -152.7 -231.6 -179.3 -198.7 -198.7C-165.8 -218.1 -135.3 -230.3 -102.6 -247.6C-69.8 -264.9 -34.9 -287.1 0 -309.4L0 0Z" fill="#e0d7fa"></path><path d="M-206.2 0C-204.7 -28 -203.1 -56.1 -190.6 -78.9C-178 -101.8 -154.4 -119.5 -132.5 -132.5C-110.5 -145.4 -90.2 -153.6 -68.4 -165.1C-46.6 -176.6 -23.3 -191.4 0 -206.2L0 0Z" fill="#9d89ed"></path><path d="M-103.1 0C-102.3 -14 -101.6 -28 -95.3 -39.5C-89 -50.9 -77.2 -59.8 -66.2 -66.2C-55.3 -72.7 -45.1 -76.8 -34.2 -82.5C-23.3 -88.3 -11.6 -95.7 0 -103.1L0 0Z" fill="#7564e6"></path></g><g transform="translate(0, 0)"><path d="M309.4 0C305.4 40 301.3 80 285.8 118.4C270.3 156.8 243.3 193.6 208.6 208.6C173.9 223.6 131.3 216.9 95.3 230C59.2 243.2 29.6 276.3 0 309.4L0 0Z" fill="#e0d7fa"></path><path d="M206.3 0C203.6 26.7 200.9 53.3 190.6 78.9C180.2 104.5 162.2 129 139.1 139.1C115.9 149.1 87.6 144.6 63.5 153.4C39.5 162.1 19.7 184.2 0 206.3L0 0Z" fill="#9d89ed"></path><path d="M103.1 0C101.8 13.3 100.4 26.7 95.3 39.5C90.1 52.3 81.1 64.5 69.5 69.5C58 74.5 43.8 72.3 31.8 76.7C19.7 81.1 9.9 92.1 0 103.1L0 0Z" fill="#7564e6"></path></g></svg>