<svg id="visual" viewBox="0 0 960 540" width="960" height="540" xmlns="http://www.w3.org/2000/svg" xmlns:xlink="http://www.w3.org/1999/xlink" version="1.1"><rect x="0" y="0" width="960" height="540" fill="#FFFFFF"></rect><defs><linearGradient id="grad1_0" x1="43.8%" y1="100%" x2="100%" y2="0%"><stop offset="14.444444444444446%" stop-color="#7564e6" stop-opacity="1"></stop><stop offset="85.55555555555554%" stop-color="#7564e6" stop-opacity="1"></stop></linearGradient></defs><defs><linearGradient id="grad1_1" x1="43.8%" y1="100%" x2="100%" y2="0%"><stop offset="14.444444444444446%" stop-color="#7564e6" stop-opacity="1"></stop><stop offset="85.55555555555554%" stop-color="#c0aff4" stop-opacity="1"></stop></linearGradient></defs><defs><linearGradient id="grad1_2" x1="43.8%" y1="100%" x2="100%" y2="0%"><stop offset="14.444444444444446%" stop-color="#ffffff" stop-opacity="1"></stop><stop offset="85.55555555555554%" stop-color="#c0aff4" stop-opacity="1"></stop></linearGradient></defs><defs><linearGradient id="grad2_0" x1="0%" y1="100%" x2="56.3%" y2="0%"><stop offset="14.444444444444446%" stop-color="#7564e6" stop-opacity="1"></stop><stop offset="85.55555555555554%" stop-color="#7564e6" stop-opacity="1"></stop></linearGradient></defs><defs><linearGradient id="grad2_1" x1="0%" y1="100%" x2="56.3%" y2="0%"><stop offset="14.444444444444446%" stop-color="#c0aff4" stop-opacity="1"></stop><stop offset="85.55555555555554%" stop-color="#7564e6" stop-opacity="1"></stop></linearGradient></defs><defs><linearGradient id="grad2_2" x1="0%" y1="100%" x2="56.3%" y2="0%"><stop offset="14.444444444444446%" stop-color="#c0aff4" stop-opacity="1"></stop><stop offset="85.55555555555554%" stop-color="#ffffff" stop-opacity="1"></stop></linearGradient></defs><g transform="translate(960, 540)"><path d="M-243 0C-241.7 -33.6 -240.4 -67.2 -224.5 -93C-208.6 -118.8 -177.9 -136.9 -152 -152C-126.1 -167.2 -104.9 -179.3 -80.4 -194C-55.8 -208.7 -27.9 -225.8 0 -243L0 0Z" fill="#e0d7fa"></path><path d="M-162 0C-161.1 -22.4 -160.3 -44.8 -149.7 -62C-139 -79.2 -118.6 -91.3 -101.4 -101.4C-84.1 -111.4 -69.9 -119.6 -53.6 -129.3C-37.2 -139.1 -18.6 -150.6 0 -162L0 0Z" fill="#9d89ed"></path><path d="M-81 0C-80.6 -11.2 -80.1 -22.4 -74.8 -31C-69.5 -39.6 -59.3 -45.6 -50.7 -50.7C-42 -55.7 -35 -59.8 -26.8 -64.7C-18.6 -69.6 -9.3 -75.3 0 -81L0 0Z" fill="#7564e6"></path></g><g transform="translate(0, 0)"><path d="M243 0C226.8 26.4 210.7 52.8 201.4 83.4C192.1 114.1 189.8 149 171.8 171.8C153.9 194.7 120.4 205.4 89.2 215.3C57.9 225.1 29 234.1 0 243L0 0Z" fill="#e0d7fa"></path><path d="M162 0C151.2 17.6 140.4 35.2 134.3 55.6C128.1 76.1 126.5 99.3 114.6 114.6C102.6 129.8 80.3 136.9 59.4 143.5C38.6 150.1 19.3 156 0 162L0 0Z" fill="#9d89ed"></path><path d="M81 0C75.6 8.8 70.2 17.6 67.1 27.8C64 38 63.3 49.7 57.3 57.3C51.3 64.9 40.1 68.5 29.7 71.8C19.3 75 9.7 78 0 81L0 0Z" fill="#7564e6"></path></g></svg>