<svg id="visual" viewBox="0 0 900 675" width="900" height="675" xmlns="http://www.w3.org/2000/svg" xmlns:xlink="http://www.w3.org/1999/xlink" version="1.1"><rect x="0" y="0" width="900" height="675" fill="#FFFFFF"></rect><defs><linearGradient id="grad1_0" x1="25%" y1="100%" x2="100%" y2="0%"><stop offset="23.333333333333336%" stop-color="#7564e6" stop-opacity="1"></stop><stop offset="76.66666666666666%" stop-color="#7564e6" stop-opacity="1"></stop></linearGradient></defs><defs><linearGradient id="grad1_1" x1="25%" y1="100%" x2="100%" y2="0%"><stop offset="23.333333333333336%" stop-color="#7564e6" stop-opacity="1"></stop><stop offset="76.66666666666666%" stop-color="#c0aff4" stop-opacity="1"></stop></linearGradient></defs><defs><linearGradient id="grad1_2" x1="25%" y1="100%" x2="100%" y2="0%"><stop offset="23.333333333333336%" stop-color="#ffffff" stop-opacity="1"></stop><stop offset="76.66666666666666%" stop-color="#c0aff4" stop-opacity="1"></stop></linearGradient></defs><defs><linearGradient id="grad2_0" x1="0%" y1="100%" x2="75%" y2="0%"><stop offset="23.333333333333336%" stop-color="#7564e6" stop-opacity="1"></stop><stop offset="76.66666666666666%" stop-color="#7564e6" stop-opacity="1"></stop></linearGradient></defs><defs><linearGradient id="grad2_1" x1="0%" y1="100%" x2="75%" y2="0%"><stop offset="23.333333333333336%" stop-color="#c0aff4" stop-opacity="1"></stop><stop offset="76.66666666666666%" stop-color="#7564e6" stop-opacity="1"></stop></linearGradient></defs><defs><linearGradient id="grad2_2" x1="0%" y1="100%" x2="75%" y2="0%"><stop offset="23.333333333333336%" stop-color="#c0aff4" stop-opacity="1"></stop><stop offset="76.66666666666666%" stop-color="#ffffff" stop-opacity="1"></stop></linearGradient></defs><g transform="translate(900, 675)"><path d="M-281.2 0C-258.3 -30.6 -235.3 -61.3 -219.9 -91.1C-204.5 -120.9 -196.7 -149.8 -180.3 -180.3C-164 -210.8 -139.1 -242.8 -107.6 -259.8C-76.2 -276.9 -38.1 -279.1 0 -281.2L0 0Z" fill="#e0d7fa"></path><path d="M-187.5 0C-172.2 -20.4 -156.9 -40.9 -146.6 -60.7C-136.3 -80.6 -131.1 -99.9 -120.2 -120.2C-109.3 -140.5 -92.7 -161.8 -71.8 -173.2C-50.8 -184.6 -25.4 -186.1 0 -187.5L0 0Z" fill="#9d89ed"></path><path d="M-93.7 0C-86.1 -10.2 -78.4 -20.4 -73.3 -30.4C-68.2 -40.3 -65.6 -49.9 -60.1 -60.1C-54.7 -70.3 -46.4 -80.9 -35.9 -86.6C-25.4 -92.3 -12.7 -93 0 -93.7L0 0Z" fill="#7564e6"></path></g><g transform="translate(0, 0)"><path d="M281.3 0C254.9 28.4 228.5 56.8 216.2 89.5C203.9 122.3 205.6 159.4 190.2 190.2C174.8 221.1 142.2 245.7 107.6 259.8C73.1 274 36.5 277.6 0 281.3L0 0Z" fill="#e0d7fa"></path><path d="M187.5 0C169.9 18.9 152.3 37.9 144.1 59.7C135.9 81.5 137.1 106.2 126.8 126.8C116.5 147.4 94.8 163.8 71.8 173.2C48.7 182.7 24.4 185.1 0 187.5L0 0Z" fill="#9d89ed"></path><path d="M93.8 0C85 9.5 76.2 18.9 72.1 29.8C68 40.8 68.5 53.1 63.4 63.4C58.3 73.7 47.4 81.9 35.9 86.6C24.4 91.3 12.2 92.5 0 93.8L0 0Z" fill="#7564e6"></path></g></svg>